# xmcd
#
# Track frame offsets:
#       225
#       20509
#       49379
#       63507
#       82326
#       97651
#       112201
#       125182
#       141269
#       163739
#       191363
#       202941
#       215952
#       231416
#
# Disc length: 3257 seconds
#
# Revision: 1
# Processed by: cddbd v1.5.2PL0 Copyright (c) Steve Scherf et al.
# Submitted via: WhereIsIt 2014.220
#
DISCID=dc0cb60e
DTITLE=Streetlife - Caravan
DYEAR=1996
DGENRE=Blues
TTITLE0=Ying Yang
TTITLE1=Is it love
TTITLE2=Running away
TTITLE3=Cleaning windows
TTITLE4=Part time lover
TTITLE5=Sweet touch of love
TTITLE6=You don't know like I know
TTITLE7=Saturday night
TTITLE8=Saying sorry
TTITLE9=Caravan
TTITLE10=That mellow saxophone
TTITLE11=Fa-Fa-Fa
TTITLE12=Land of 1000 dances
TTITLE13=You don't know like I know (RAP-Version)
EXTD=
EXTT0=
EXTT1=
EXTT2=
EXTT3=
EXTT4=
EXTT5=
EXTT6=
EXTT7=
EXTT8=
EXTT9=
EXTT10=
EXTT11=
EXTT12=
EXTT13=
PLAYORDER=
